<svg xmlns="http://www.w3.org/2000/svg" width="936" height="598" viewBox="0 0 935.6 598.0" role="img" aria-label="The wilderness surface, scrolling as you walk">
<rect width="100%" height="100%" fill="#000"/>
<g font-family="Menlo,DejaVu Sans Mono,Consolas,monospace" font-size="14" xml:space="preserve">
<text x="10.0" y="40.0" fill="#00ffff">Human</text>
<text x="194.8" y="40.0" fill="#808080">###</text>
<text x="220.0" y="40.0" fill="#a0c0d0">#</text>
<text x="245.2" y="40.0" fill="#a0c0d0">#</text>
<text x="253.6" y="40.0" fill="#c0c0c0">........</text>
<text x="320.8" y="40.0" fill="#606060">:</text>
<text x="329.2" y="40.0" fill="#808080">#</text>
<text x="346.0" y="40.0" fill="#606060">:</text>
<text x="354.4" y="40.0" fill="#c0c0c0">.</text>
<text x="362.8" y="40.0" fill="#606060">:</text>
<text x="371.2" y="40.0" fill="#c0c0c0">......</text>
<text x="421.6" y="40.0" fill="#606060">::</text>
<text x="438.4" y="40.0" fill="#808080">#</text>
<text x="455.2" y="40.0" fill="#c0c0c0">.....</text>
<text x="497.2" y="40.0" fill="#a0c0d0">#</text>
<text x="514.0" y="40.0" fill="#a0c0d0">#</text>
<text x="522.4" y="40.0" fill="#ffffff">.......</text>
<text x="581.2" y="40.0" fill="#a0c0d0">####</text>
<text x="614.8" y="40.0" fill="#c0c0c0">....</text>
<text x="648.4" y="40.0" fill="#a0c0d0">###</text>
<text x="673.6" y="40.0" fill="#c0c0c0">...</text>
<text x="698.8" y="40.0" fill="#a0c0d0">#</text>
<text x="715.6" y="40.0" fill="#a0c0d0">#</text>
<text x="724.0" y="40.0" fill="#c0c0c0">............</text>
<text x="824.8" y="40.0" fill="#808080">#</text>
<text x="841.6" y="40.0" fill="#c0c0c0">..........</text>
<text x="10.0" y="57.0" fill="#00ffff">Rookie</text>
<text x="194.8" y="57.0" fill="#808080">#</text>
<text x="203.2" y="57.0" fill="#c0c0c0">..</text>
<text x="220.0" y="57.0" fill="#a0c0d0">####</text>
<text x="253.6" y="57.0" fill="#c0c0c0">.........</text>
<text x="329.2" y="57.0" fill="#808080">##</text>
<text x="346.0" y="57.0" fill="#606060">:</text>
<text x="354.4" y="57.0" fill="#c0c0c0">..........</text>
<text x="438.4" y="57.0" fill="#808080">#</text>
<text x="446.8" y="57.0" fill="#606060">::</text>
<text x="463.6" y="57.0" fill="#c0c0c0">....</text>
<text x="497.2" y="57.0" fill="#a0c0d0">###</text>
<text x="522.4" y="57.0" fill="#ffffff">.......</text>
<text x="581.2" y="57.0" fill="#a0c0d0">#</text>
<text x="589.6" y="57.0" fill="#808080">2</text>
<text x="598.0" y="57.0" fill="#a0c0d0">##</text>
<text x="614.8" y="57.0" fill="#c0c0c0">...</text>
<text x="640.0" y="57.0" fill="#ffffff">.</text>
<text x="648.4" y="57.0" fill="#a0c0d0">#</text>
<text x="656.8" y="57.0" fill="#808080">9</text>
<text x="665.2" y="57.0" fill="#a0c0d0">#</text>
<text x="673.6" y="57.0" fill="#c0c0c0">...</text>
<text x="698.8" y="57.0" fill="#a0c0d0">###</text>
<text x="724.0" y="57.0" fill="#c0c0c0">........................</text>
<text x="10.0" y="74.0" fill="#00ffff">Warrior</text>
<text x="186.4" y="74.0" fill="#808080">##</text>
<text x="203.2" y="74.0" fill="#c0c0c0">..</text>
<text x="220.0" y="74.0" fill="#a0c0d0">#</text>
<text x="228.4" y="74.0" fill="#c08040">1</text>
<text x="236.8" y="74.0" fill="#a0c0d0">##</text>
<text x="253.6" y="74.0" fill="#c0c0c0">...........</text>
<text x="346.0" y="74.0" fill="#606060">:</text>
<text x="354.4" y="74.0" fill="#804000">:</text>
<text x="362.8" y="74.0" fill="#ffffff">.</text>
<text x="371.2" y="74.0" fill="#c0c0c0">.........</text>
<text x="446.8" y="74.0" fill="#804000">:::</text>
<text x="472.0" y="74.0" fill="#ffffff">..</text>
<text x="488.8" y="74.0" fill="#c0c0c0">.</text>
<text x="497.2" y="74.0" fill="#c00000">6</text>
<text x="505.6" y="74.0" fill="#a0c0d0">##</text>
<text x="522.4" y="74.0" fill="#ffffff">.....................</text>
<text x="698.8" y="74.0" fill="#a0c0d0">#</text>
<text x="707.2" y="74.0" fill="#808080">+</text>
<text x="715.6" y="74.0" fill="#a0c0d0">#</text>
<text x="724.0" y="74.0" fill="#c0c0c0">........................</text>
<text x="10.0" y="91.0" fill="#ffffff">LEVEL</text>
<text x="102.4" y="91.0" fill="#00ff00">1</text>
<text x="186.4" y="91.0" fill="#808080">#</text>
<text x="194.8" y="91.0" fill="#c0c0c0">...................</text>
<text x="354.4" y="91.0" fill="#ffffff">....................@....................</text>
<text x="698.8" y="91.0" fill="#c0c0c0">...........................</text>
<text x="10.0" y="108.0" fill="#ffffff">NXT</text>
<text x="94.0" y="108.0" fill="#00ff00">10</text>
<text x="186.4" y="108.0" fill="#808080">##</text>
<text x="203.2" y="108.0" fill="#c0c0c0">..................</text>
<text x="354.4" y="108.0" fill="#ffffff">.........................................</text>
<text x="698.8" y="108.0" fill="#c0c0c0">...........................</text>
<text x="10.0" y="125.0" fill="#ffffff">AU</text>
<text x="77.2" y="125.0" fill="#00ff00">4375</text>
<text x="186.4" y="125.0" fill="#808080">#</text>
<text x="194.8" y="125.0" fill="#c0c0c0">......................</text>
<text x="379.6" y="125.0" fill="#804000">:</text>
<text x="388.0" y="125.0" fill="#c0c0c0">..</text>
<text x="404.8" y="125.0" fill="#804000">::</text>
<text x="421.6" y="125.0" fill="#ffffff">.........................</text>
<text x="631.6" y="125.0" fill="#a0c0d0">###</text>
<text x="656.8" y="125.0" fill="#c0c0c0">.............................</text>
<text x="900.4" y="125.0" fill="#606060">::</text>
<text x="10.0" y="142.0" fill="#c0c0c0">|</text>
<text x="52.0" y="142.0" fill="#804000">~</text>
<text x="60.4" y="142.0" fill="#c08040">(</text>
<text x="186.4" y="142.0" fill="#808080">#</text>
<text x="194.8" y="142.0" fill="#c0c0c0">....</text>
<text x="228.4" y="142.0" fill="#008040">4</text>
<text x="236.8" y="142.0" fill="#a0c0d0">##</text>
<text x="253.6" y="142.0" fill="#c0c0c0">.................</text>
<text x="396.4" y="142.0" fill="#808080">#</text>
<text x="404.8" y="142.0" fill="#c0c0c0">#</text>
<text x="413.2" y="142.0" fill="#ffffff">..........................</text>
<text x="631.6" y="142.0" fill="#a0c0d0">##</text>
<text x="648.4" y="142.0" fill="#606060">+</text>
<text x="656.8" y="142.0" fill="#c0c0c0">.....</text>
<text x="698.8" y="142.0" fill="#a0c0d0">#</text>
<text x="707.2" y="142.0" fill="#808080">+</text>
<text x="715.6" y="142.0" fill="#a0c0d0">##</text>
<text x="732.4" y="142.0" fill="#c0c0c0">.....................</text>
<text x="908.8" y="142.0" fill="#808080">#</text>
<text x="10.0" y="159.0" fill="#ffffff">STR:</text>
<text x="68.8" y="159.0" fill="#00ff00">18/20</text>
<text x="186.4" y="159.0" fill="#808080">#</text>
<text x="194.8" y="159.0" fill="#606060">:</text>
<text x="203.2" y="159.0" fill="#808080">#</text>
<text x="211.6" y="159.0" fill="#606060">:</text>
<text x="220.0" y="159.0" fill="#c0c0c0">.</text>
<text x="228.4" y="159.0" fill="#a0c0d0">###</text>
<text x="253.6" y="159.0" fill="#c0c0c0">.................</text>
<text x="396.4" y="159.0" fill="#808080">#</text>
<text x="404.8" y="159.0" fill="#c0c0c0">#</text>
<text x="413.2" y="159.0" fill="#ffffff">..........................</text>
<text x="631.6" y="159.0" fill="#a0c0d0">###</text>
<text x="656.8" y="159.0" fill="#c0c0c0">.....</text>
<text x="698.8" y="159.0" fill="#a0c0d0">####</text>
<text x="732.4" y="159.0" fill="#c0c0c0">....................</text>
<text x="900.4" y="159.0" fill="#606060">:</text>
<text x="10.0" y="176.0" fill="#ffffff">INT:</text>
<text x="102.4" y="176.0" fill="#00ff00">8</text>
<text x="119.2" y="176.0" fill="#808080">##########</text>
<text x="203.2" y="176.0" fill="#606060">::</text>
<text x="220.0" y="176.0" fill="#c0c0c0">.</text>
<text x="228.4" y="176.0" fill="#a0c0d0">###</text>
<text x="253.6" y="176.0" fill="#c0c0c0">..................</text>
<text x="404.8" y="176.0" fill="#804000">:</text>
<text x="413.2" y="176.0" fill="#ffffff">..........................</text>
<text x="631.6" y="176.0" fill="#a0c0d0">#</text>
<text x="648.4" y="176.0" fill="#a0c0d0">#</text>
<text x="656.8" y="176.0" fill="#c0c0c0">.....</text>
<text x="698.8" y="176.0" fill="#a0c0d0">#</text>
<text x="724.0" y="176.0" fill="#a0c0d0">#</text>
<text x="732.4" y="176.0" fill="#c0c0c0">....................</text>
<text x="900.4" y="176.0" fill="#606060">:</text>
<text x="10.0" y="193.0" fill="#ffffff">WIS:</text>
<text x="102.4" y="193.0" fill="#00ff00">8</text>
<text x="119.2" y="193.0" fill="#808080">#</text>
<text x="127.6" y="193.0" fill="#c0c0c0">...................</text>
<text x="287.2" y="193.0" fill="#606060">:</text>
<text x="295.6" y="193.0" fill="#c0c0c0">..</text>
<text x="312.4" y="193.0" fill="#606060">:</text>
<text x="320.8" y="193.0" fill="#c0c0c0">.......</text>
<text x="379.6" y="193.0" fill="#606060">:</text>
<text x="388.0" y="193.0" fill="#c0c0c0">..</text>
<text x="404.8" y="193.0" fill="#804000">:</text>
<text x="413.2" y="193.0" fill="#c0c0c0">.</text>
<text x="421.6" y="193.0" fill="#804000">:</text>
<text x="430.0" y="193.0" fill="#c0c0c0">.</text>
<text x="438.4" y="193.0" fill="#804000">::</text>
<text x="455.2" y="193.0" fill="#ffffff">..................</text>
<text x="606.4" y="193.0" fill="#804000">:</text>
<text x="614.8" y="193.0" fill="#c0c0c0">.</text>
<text x="623.2" y="193.0" fill="#ffffff">..</text>
<text x="640.0" y="193.0" fill="#c0c0c0">.................................</text>
<text x="10.0" y="210.0" fill="#ffffff">DEX:</text>
<text x="94.0" y="210.0" fill="#00ff00">18</text>
<text x="119.2" y="210.0" fill="#808080">##</text>
<text x="136.0" y="210.0" fill="#c0c0c0">................</text>
<text x="270.4" y="210.0" fill="#606060">:</text>
<text x="278.8" y="210.0" fill="#808080">:#</text>
<text x="295.6" y="210.0" fill="#c0c0c0">.........</text>
<text x="371.2" y="210.0" fill="#606060">::</text>
<text x="388.0" y="210.0" fill="#c0c0c0">.</text>
<text x="396.4" y="210.0" fill="#808080">:#</text>
<text x="413.2" y="210.0" fill="#c0c0c0">...</text>
<text x="438.4" y="210.0" fill="#808080">#</text>
<text x="446.8" y="210.0" fill="#c0c0c0">#:</text>
<text x="463.6" y="210.0" fill="#804000">:</text>
<text x="472.0" y="210.0" fill="#ffffff">.............</text>
<text x="581.2" y="210.0" fill="#c0c0c0">##:#</text>
<text x="614.8" y="210.0" fill="#606060">:</text>
<text x="623.2" y="210.0" fill="#c0c0c0">..</text>
<text x="640.0" y="210.0" fill="#a0c0d0">##</text>
<text x="656.8" y="210.0" fill="#808080">+</text>
<text x="665.2" y="210.0" fill="#c0c0c0">.....</text>
<text x="707.2" y="210.0" fill="#0040ff">5</text>
<text x="715.6" y="210.0" fill="#a0c0d0">##</text>
<text x="732.4" y="210.0" fill="#c0c0c0">......................</text>
<text x="10.0" y="227.0" fill="#ffffff">CON:</text>
<text x="94.0" y="227.0" fill="#00ff00">18</text>
<text x="127.6" y="227.0" fill="#808080">#</text>
<text x="136.0" y="227.0" fill="#c0c0c0">................</text>
<text x="270.4" y="227.0" fill="#606060">::</text>
<text x="287.2" y="227.0" fill="#c0c0c0">.............</text>
<text x="396.4" y="227.0" fill="#808080">:#</text>
<text x="413.2" y="227.0" fill="#c0c0c0">...</text>
<text x="438.4" y="227.0" fill="#808080">#</text>
<text x="463.6" y="227.0" fill="#c0c0c0">.</text>
<text x="472.0" y="227.0" fill="#ffffff">............</text>
<text x="572.8" y="227.0" fill="#804000">:</text>
<text x="581.2" y="227.0" fill="#c0c0c0">.</text>
<text x="614.8" y="227.0" fill="#606060">:</text>
<text x="623.2" y="227.0" fill="#c0c0c0">..</text>
<text x="640.0" y="227.0" fill="#a0c0d0">###</text>
<text x="665.2" y="227.0" fill="#c0c0c0">.....</text>
<text x="707.2" y="227.0" fill="#a0c0d0">###</text>
<text x="732.4" y="227.0" fill="#c0c0c0">......................</text>
<text x="127.6" y="244.0" fill="#808080">##</text>
<text x="144.4" y="244.0" fill="#c0c0c0">.....</text>
<text x="186.4" y="244.0" fill="#808080">##</text>
<text x="203.2" y="244.0" fill="#c0c0c0">.........</text>
<text x="278.8" y="244.0" fill="#606060">:</text>
<text x="287.2" y="244.0" fill="#c0c0c0">.............</text>
<text x="396.4" y="244.0" fill="#606060">:</text>
<text x="404.8" y="244.0" fill="#c0c0c0">...</text>
<text x="430.0" y="244.0" fill="#606060">::</text>
<text x="455.2" y="244.0" fill="#c0c0c0">.</text>
<text x="463.6" y="244.0" fill="#804000">:</text>
<text x="472.0" y="244.0" fill="#ffffff">............</text>
<text x="572.8" y="244.0" fill="#804000">:</text>
<text x="581.2" y="244.0" fill="#c0c0c0">...</text>
<text x="623.2" y="244.0" fill="#c0c0c0">..</text>
<text x="640.0" y="244.0" fill="#a0c0d0">#</text>
<text x="656.8" y="244.0" fill="#a0c0d0">#</text>
<text x="665.2" y="244.0" fill="#c0c0c0">......</text>
<text x="732.4" y="244.0" fill="#c0c0c0">.....................</text>
<text x="10.0" y="261.0" fill="#ffffff">Cur</text>
<text x="43.6" y="261.0" fill="#ffffff">AC</text>
<text x="94.0" y="261.0" fill="#00ff00">10</text>
<text x="136.0" y="261.0" fill="#808080">#</text>
<text x="144.4" y="261.0" fill="#606060">:</text>
<text x="152.8" y="261.0" fill="#808080">######</text>
<text x="203.2" y="261.0" fill="#c0c0c0">.....................</text>
<text x="379.6" y="261.0" fill="#606060">::</text>
<text x="396.4" y="261.0" fill="#c0c0c0">...</text>
<text x="421.6" y="261.0" fill="#606060">:</text>
<text x="446.8" y="261.0" fill="#606060">:</text>
<text x="463.6" y="261.0" fill="#804000">::</text>
<text x="480.4" y="261.0" fill="#ffffff">.....</text>
<text x="522.4" y="261.0" fill="#804000">:</text>
<text x="530.8" y="261.0" fill="#ffffff">..</text>
<text x="547.6" y="261.0" fill="#804000">:</text>
<text x="556.0" y="261.0" fill="#ffffff">.</text>
<text x="564.4" y="261.0" fill="#804000">:</text>
<text x="572.8" y="261.0" fill="#c0c0c0">.....</text>
<text x="623.2" y="261.0" fill="#c0c0c0">..</text>
<text x="665.2" y="261.0" fill="#c0c0c0">..................</text>
<text x="816.4" y="261.0" fill="#606060">:</text>
<text x="824.8" y="261.0" fill="#c0c0c0">.</text>
<text x="833.2" y="261.0" fill="#606060">:</text>
<text x="841.6" y="261.0" fill="#c0c0c0">.</text>
<text x="850.0" y="261.0" fill="#606060">:</text>
<text x="866.8" y="261.0" fill="#c0c0c0">...</text>
<text x="892.0" y="261.0" fill="#606060">::</text>
<text x="10.0" y="278.0" fill="#ffffff">HP</text>
<text x="35.2" y="278.0" fill="#00ff00">1000</text>
<text x="68.8" y="278.0" fill="#ffffff">/</text>
<text x="77.2" y="278.0" fill="#00ff00">1000</text>
<text x="194.8" y="278.0" fill="#808080">##</text>
<text x="211.6" y="278.0" fill="#c0c0c0">.</text>
<text x="220.0" y="278.0" fill="#606060">::</text>
<text x="236.8" y="278.0" fill="#c0c0c0">.</text>
<text x="245.2" y="278.0" fill="#606060">:</text>
<text x="253.6" y="278.0" fill="#c0c0c0">.</text>
<text x="262.0" y="278.0" fill="#606060">:</text>
<text x="270.4" y="278.0" fill="#c0c0c0">..............</text>
<text x="388.0" y="278.0" fill="#808080">###</text>
<text x="413.2" y="278.0" fill="#c0c0c0">.</text>
<text x="421.6" y="278.0" fill="#606060">:</text>
<text x="472.0" y="278.0" fill="#c0c0c0">.</text>
<text x="480.4" y="278.0" fill="#804000">:</text>
<text x="488.8" y="278.0" fill="#ffffff">.</text>
<text x="497.2" y="278.0" fill="#c0c0c0">::</text>
<text x="514.0" y="278.0" fill="#ffffff">.</text>
<text x="522.4" y="278.0" fill="#c0c0c0">.#:</text>
<text x="547.6" y="278.0" fill="#804000">:</text>
<text x="556.0" y="278.0" fill="#606060">:</text>
<text x="564.4" y="278.0" fill="#c0c0c0">.</text>
<text x="581.2" y="278.0" fill="#c0c0c0">.</text>
<text x="606.4" y="278.0" fill="#c0c0c0">.</text>
<text x="623.2" y="278.0" fill="#c0c0c0">...</text>
<text x="656.8" y="278.0" fill="#c0c0c0">...........</text>
<text x="749.2" y="278.0" fill="#808080">##</text>
<text x="766.0" y="278.0" fill="#c0c0c0">.......</text>
<text x="833.2" y="278.0" fill="#c0c0c0">.</text>
<text x="850.0" y="278.0" fill="#c0c0c0">.</text>
<text x="875.2" y="278.0" fill="#808080">#</text>
<text x="883.6" y="278.0" fill="#606060">:</text>
<text x="892.0" y="278.0" fill="#808080">#</text>
<text x="203.2" y="295.0" fill="#808080">#</text>
<text x="211.6" y="295.0" fill="#c0c0c0">.</text>
<text x="220.0" y="295.0" fill="#606060">:</text>
<text x="228.4" y="295.0" fill="#c0c0c0">.</text>
<text x="236.8" y="295.0" fill="#808080">:##</text>
<text x="262.0" y="295.0" fill="#c0c0c0">...</text>
<text x="287.2" y="295.0" fill="#808080">#</text>
<text x="295.6" y="295.0" fill="#c0c0c0">.........</text>
<text x="371.2" y="295.0" fill="#606060">:</text>
<text x="379.6" y="295.0" fill="#c0c0c0">.</text>
<text x="388.0" y="295.0" fill="#808080">#</text>
<text x="404.8" y="295.0" fill="#606060">:</text>
<text x="463.6" y="295.0" fill="#c0c0c0">..</text>
<text x="480.4" y="295.0" fill="#804000">::</text>
<text x="497.2" y="295.0" fill="#808080">#</text>
<text x="505.6" y="295.0" fill="#c0c0c0">#</text>
<text x="514.0" y="295.0" fill="#ffffff">.</text>
<text x="522.4" y="295.0" fill="#c0c0c0">..</text>
<text x="564.4" y="295.0" fill="#606060">:</text>
<text x="572.8" y="295.0" fill="#c0c0c0">.</text>
<text x="589.6" y="295.0" fill="#c0c0c0">.</text>
<text x="614.8" y="295.0" fill="#c0c0c0">................</text>
<text x="749.2" y="295.0" fill="#808080">##</text>
<text x="766.0" y="295.0" fill="#c0c0c0">.....</text>
<text x="808.0" y="295.0" fill="#606060">:</text>
<text x="816.4" y="295.0" fill="#808080">:#</text>
<text x="841.6" y="295.0" fill="#606060">:</text>
<text x="858.4" y="295.0" fill="#c0c0c0">.</text>
<text x="211.6" y="312.0" fill="#c0c0c0">..</text>
<text x="228.4" y="312.0" fill="#606060">:</text>
<text x="253.6" y="312.0" fill="#606060">:</text>
<text x="262.0" y="312.0" fill="#c0c0c0">..</text>
<text x="278.8" y="312.0" fill="#808080">##</text>
<text x="295.6" y="312.0" fill="#c0c0c0">.......</text>
<text x="354.4" y="312.0" fill="#808080">#</text>
<text x="362.8" y="312.0" fill="#c0c0c0">.</text>
<text x="371.2" y="312.0" fill="#808080">###</text>
<text x="455.2" y="312.0" fill="#c0c0c0">.</text>
<text x="505.6" y="312.0" fill="#c0c0c0">.</text>
<text x="514.0" y="312.0" fill="#ffffff">.</text>
<text x="522.4" y="312.0" fill="#c0c0c0">...</text>
<text x="581.2" y="312.0" fill="#c0c0c0">.</text>
<text x="598.0" y="312.0" fill="#c0c0c0">.</text>
<text x="623.2" y="312.0" fill="#c0c0c0">............</text>
<text x="724.0" y="312.0" fill="#808080">#</text>
<text x="732.4" y="312.0" fill="#c0c0c0">..</text>
<text x="749.2" y="312.0" fill="#808080">##</text>
<text x="766.0" y="312.0" fill="#c0c0c0">.....</text>
<text x="808.0" y="312.0" fill="#606060">:</text>
<text x="866.8" y="312.0" fill="#808080">#</text>
<text x="203.2" y="329.0" fill="#c0c0c0">...</text>
<text x="253.6" y="329.0" fill="#c0c0c0">.</text>
<text x="262.0" y="329.0" fill="#808080">###</text>
<text x="287.2" y="329.0" fill="#c0c0c0">...</text>
<text x="312.4" y="329.0" fill="#606060">:</text>
<text x="320.8" y="329.0" fill="#c0c0c0">.</text>
<text x="329.2" y="329.0" fill="#808080">####</text>
<text x="362.8" y="329.0" fill="#c0c0c0">.</text>
<text x="371.2" y="329.0" fill="#808080">#</text>
<text x="446.8" y="329.0" fill="#c0c0c0">..</text>
<text x="497.2" y="329.0" fill="#c0c0c0">..</text>
<text x="514.0" y="329.0" fill="#ffffff">.</text>
<text x="522.4" y="329.0" fill="#c0c0c0">....</text>
<text x="589.6" y="329.0" fill="#c0c0c0">.......</text>
<text x="648.4" y="329.0" fill="#808080">.</text>
<text x="656.8" y="329.0" fill="#c0c0c0">.....</text>
<text x="698.8" y="329.0" fill="#808080">#</text>
<text x="707.2" y="329.0" fill="#c0c0c0">..</text>
<text x="724.0" y="329.0" fill="#808080">#</text>
<text x="732.4" y="329.0" fill="#c0c0c0">..</text>
<text x="749.2" y="329.0" fill="#606060">:</text>
<text x="757.6" y="329.0" fill="#808080">#</text>
<text x="766.0" y="329.0" fill="#c0c0c0">..</text>
<text x="782.8" y="329.0" fill="#606060">:</text>
<text x="791.2" y="329.0" fill="#c0c0c0">..</text>
<text x="203.2" y="346.0" fill="#c0c0c0">..</text>
<text x="220.0" y="346.0" fill="#808080">##</text>
<text x="245.2" y="346.0" fill="#808080">#</text>
<text x="278.8" y="346.0" fill="#808080">#</text>
<text x="287.2" y="346.0" fill="#c0c0c0">...</text>
<text x="312.4" y="346.0" fill="#606060">:</text>
<text x="320.8" y="346.0" fill="#c0c0c0">.</text>
<text x="329.2" y="346.0" fill="#808080">#</text>
<text x="354.4" y="346.0" fill="#808080">#</text>
<text x="362.8" y="346.0" fill="#c0c0c0">.</text>
<text x="446.8" y="346.0" fill="#808080">#</text>
<text x="497.2" y="346.0" fill="#808080">#</text>
<text x="505.6" y="346.0" fill="#c0c0c0">.</text>
<text x="514.0" y="346.0" fill="#ffffff">.</text>
<text x="522.4" y="346.0" fill="#c00000">#</text>
<text x="530.8" y="346.0" fill="#808080">#</text>
<text x="539.2" y="346.0" fill="#c0c0c0">..</text>
<text x="589.6" y="346.0" fill="#808080">##</text>
<text x="606.4" y="346.0" fill="#c0c0c0">....</text>
<text x="640.0" y="346.0" fill="#808080">..</text>
<text x="656.8" y="346.0" fill="#c0c0c0">....</text>
<text x="690.4" y="346.0" fill="#808080">#</text>
<text x="707.2" y="346.0" fill="#808080">##</text>
<text x="732.4" y="346.0" fill="#c0c0c0">...</text>
<text x="757.6" y="346.0" fill="#808080">###</text>
<text x="791.2" y="346.0" fill="#c0c0c0">..</text>
<text x="808.0" y="346.0" fill="#808080">#</text>
<text x="194.8" y="363.0" fill="#c0c0c0">..</text>
<text x="211.6" y="363.0" fill="#808080">##</text>
<text x="278.8" y="363.0" fill="#808080">###</text>
<text x="304.0" y="363.0" fill="#c0c0c0">.</text>
<text x="320.8" y="363.0" fill="#c0c0c0">.</text>
<text x="329.2" y="363.0" fill="#808080">#</text>
<text x="354.4" y="363.0" fill="#808080">#</text>
<text x="362.8" y="363.0" fill="#c0c0c0">..</text>
<text x="497.2" y="363.0" fill="#808080">#</text>
<text x="505.6" y="363.0" fill="#c0c0c0">#</text>
<text x="514.0" y="363.0" fill="#808080">###</text>
<text x="547.6" y="363.0" fill="#808080">#</text>
<text x="614.8" y="363.0" fill="#808080">###..</text>
<text x="656.8" y="363.0" fill="#c0c0c0">...</text>
<text x="682.0" y="363.0" fill="#808080">###</text>
<text x="724.0" y="363.0" fill="#808080">#</text>
<text x="732.4" y="363.0" fill="#c00000">#</text>
<text x="740.8" y="363.0" fill="#808080">#</text>
<text x="757.6" y="363.0" fill="#808080">#</text>
<text x="782.8" y="363.0" fill="#808080">#</text>
<text x="799.6" y="363.0" fill="#808080">##</text>
<text x="10.0" y="380.0" fill="#ffffff">Weirmonken</text>
<text x="186.4" y="380.0" fill="#c0c0c0">.</text>
<text x="203.2" y="380.0" fill="#c0c0c0">.</text>
<text x="295.6" y="380.0" fill="#808080">#####</text>
<text x="354.4" y="380.0" fill="#808080">#</text>
<text x="362.8" y="380.0" fill="#c0c0c0">..</text>
<text x="631.6" y="380.0" fill="#808080">#..##</text>
<text x="673.6" y="380.0" fill="#c0c0c0">.</text>
<text x="682.0" y="380.0" fill="#808080">#</text>
<text x="724.0" y="380.0" fill="#808080">#</text>
<text x="732.4" y="380.0" fill="#c00000">#</text>
<text x="740.8" y="380.0" fill="#808080">#</text>
<text x="10.0" y="397.0" fill="#808080">great</text>
<text x="60.4" y="397.0" fill="#808080">city</text>
<text x="178.0" y="397.0" fill="#808080">#</text>
<text x="194.8" y="397.0" fill="#808080">#</text>
<text x="354.4" y="397.0" fill="#808080">####</text>
<text x="631.6" y="397.0" fill="#808080">#</text>
<text x="640.0" y="397.0" fill="#c08040">++</text>
<text x="656.8" y="397.0" fill="#808080">####</text>
<text x="724.0" y="397.0" fill="#808080">###</text>
<text x="119.2" y="584.0" fill="#ffff00">Day</text>
<text x="169.6" y="584.0" fill="#ffff00">Light</text>
<text x="220.0" y="584.0" fill="#ffff00">1</text>
<text x="245.2" y="584.0" fill="#00ff00">Fed</text>
<text x="278.8" y="584.0" fill="#00ff00">87</text>
<text x="304.0" y="584.0" fill="#00ff00">%</text>
<text x="320.8" y="584.0" fill="#ffffff">Open</text>
<text x="362.8" y="584.0" fill="#ffffff">floor</text>
</g></svg>